<?xml version="1.0" encoding="UTF-8"?>
<svg id="Capa_2" data-name="Capa 2" xmlns="http://www.w3.org/2000/svg" viewBox="0 0 413.87 548.76">
  <defs>
    <style>
      .cls-1 {
        opacity: .3;
      }

      .cls-2 {
        fill: #b49883;
      }
    </style>
  </defs>
  <g id="Capa_1-2" data-name="Capa 1">
    <g class="cls-1">
      <path class="cls-2" d="M152.63,533.82c.06-1.03.05-2.07.2-3.08,1.23-7.84,3.77-15.3,7.13-22.43,4.74-10.07,9.31-20.19,13.23-30.61,3.92-10.42,10.15-19.5,17.18-28.09,11.05-13.5,22.25-26.9,32.87-40.73,18.94-24.66,43.75-39.74,73.84-46.55,6.69-1.51,13.41-2.95,20.16-4.16,27.38-4.91,53.86-12.7,79.19-24.27,3.27-1.49,6.65-2.77,10.02-4.03,1.44-.54,3.02-1.1,4.36.34-.51,2.49-2.8,5.98-6,9.08-3.64,3.52-7.42,6.91-10.96,10.53-8.03,8.21-16.33,16.19-23.84,24.86-19.55,22.55-44.11,37.16-72.1,46.4-13.24,4.37-26.74,7.98-40.06,12.14-9.77,3.05-19.55,6.13-29.14,9.69-28,10.39-48.45,29.39-61.97,55.83-4.13,8.08-8.41,16.16-10.73,25.05-.87,3.35-1.63,6.73-2.44,10.09-.32-.02-.63-.03-.95-.05ZM183.58,469.62c.18.14.35.27.53.41.76-.74,1.55-1.46,2.29-2.22,6.15-6.35,13.07-11.71,20.58-16.36,9.44-5.85,19.52-10.35,30.05-13.69,13.83-4.39,27.8-8.37,41.7-12.55,14.02-4.22,27.93-8.7,41.2-15.02,7.41-3.53,13.12-8.59,16.75-15.97.89-1.81,1.96-3.54,2.96-5.3,4.92-8.66,11.27-15.99,19.82-21.26,6.61-4.08,13.17-8.25,19.85-12.2,9.24-5.46,18.31-11.1,25.36-19.4.68-.8,1.31-1.65,1.96-2.47-1.08-.05-1.81.2-2.45.59-9.52,5.8-18.94,11.72-27.81,18.54-8.75,6.72-17.68,13.23-26.86,19.34-13.71,9.13-28.5,16.41-43.42,23.31-22.58,10.45-45.35,20.48-68.03,30.7-20.86,9.39-37.62,24.07-52.67,40.94-.7.79-1.22,1.73-1.82,2.6ZM346.1,372.77c-.16-.23-.31-.46-.47-.68-2.86,1.29-5.76,2.52-8.59,3.9-11.47,5.62-23.7,8.49-36.29,9.91-8.26.93-16.57,1.43-24.84,2.28-10.99,1.13-21.86,2.73-32.15,7.17-6.98,3.01-12.89,7.27-17.67,13.19-11.81,14.64-23.68,29.22-35.53,43.83-5.55,6.84-10.56,14.02-14.03,22.18-.26.62-.43,1.27-.64,1.91.87-.46,1.4-1.03,1.83-1.67,6.16-9.27,13.88-17.1,22.05-24.59,10.36-9.5,21.5-17.91,34.25-23.89,15.6-7.32,31.29-14.46,47.1-21.3,19.56-8.45,38.81-17.5,57.46-27.82,2.54-1.4,5-2.94,7.5-4.41ZM237.98,395.01c.17.24.34.48.5.72.78-.42,1.59-.81,2.35-1.27,6.1-3.69,12.64-6.35,19.41-8.57,11.09-3.65,22.55-5.17,34.09-6.25,9.95-.93,19.93-1.47,29.77-3.49,16.8-3.45,32.28-9.69,45.74-20.55,6.22-5.02,12.6-9.85,18.89-14.77.4-.32.73-.73,1.15-1.15-.38-.16-.6-.35-.75-.3-.64.19-1.28.42-1.9.68-17.08,7.14-34.72,12.51-52.75,16.58-11.73,2.65-23.6,4.7-35.36,7.23-19.31,4.14-37.08,11.74-52.67,24.07-2.89,2.28-5.65,4.73-8.48,7.1ZM386.21,354.21c-.2-.24-.41-.48-.61-.71-7.26,4.5-14.64,8.81-21.75,13.54-7.1,4.72-12.99,10.71-17.5,18.05-2.71,4.4-5.86,8.53-8.83,12.77-.75,1.07-1.57,2.09-2.35,3.13,1.04-.03,1.81-.37,2.53-.81,8.79-5.39,16.71-11.86,23.8-19.34,7.97-8.43,15.89-16.9,23.82-25.37.35-.37.61-.84.91-1.26Z"/>
      <g>
        <path class="cls-2" d="M168.3,49.53c-.87,4.06-1.9,8.1-2.59,12.2-1.55,9.21-3.27,18.41-4.3,27.69-.9,8.13-1.02,16.34-1.35,24.52-.56,13.52.89,26.89,3.25,40.18,2.88,16.27,9.98,30.73,19.09,44.31,1.49,2.22,3.46,4.11,4.91,6.53-1.25-1.14-2.71-2.12-3.71-3.45-2.97-3.95-5.97-7.91-8.57-12.1-9.85-15.84-14.16-33.4-15.75-51.78-.92-10.63-1.06-21.26-.53-31.93.51-10.12,1.15-20.22,3.05-30.17,1.69-8.81,3.85-17.53,5.8-26.3.23.1.47.2.7.29Z"/>
        <path class="cls-2" d="M262.88,251.78c.63,0,1.27-.08,1.88.04,14.57,2.87,28.84.62,43.07-2.51,18.35-4.03,35.57-11.22,52.67-18.76,3.48-1.53,6.91-3.16,10.58-4.45-.29.24-.56.53-.89.7-21.61,11.01-43.79,20.5-67.74,25.28-8.16,1.63-16.39,3.02-24.71,2.57-5.01-.27-9.97-1.49-14.95-2.28.03-.2.07-.39.1-.59Z"/>
        <path class="cls-2" d="M213.39,114.71c-2.67,8.2-5.68,16.53-8.05,25.04-1.99,7.13-3.62,14.41-4.71,21.73-1.53,10.36-1.61,20.82-.08,31.23.97,6.63,3.19,12.86,6.4,18.74.65,1.18,1.27,2.38,1.49,3.93-.61-.77-1.28-1.5-1.82-2.31-5.37-8.09-7.72-17.12-8.52-26.7-1.11-13.4.81-26.54,3.69-39.5,2.38-10.73,6.07-21.12,10.95-31.03.24-.49.53-.94.63-1.12Z"/>
        <path class="cls-2" d="M266.34,89.39c-13.18,32.41-27.45,64.31-44.59,94.86,14.86-31.62,29.72-63.24,44.59-94.86Z"/>
        <path class="cls-2" d="M48.27,144.66c6.02-2.51,12.34-3.86,18.76-4.48,8.7-.84,17.43-1.72,26.16-1.81,12.92-.12,25.16,3.05,36.37,9.65,2.38,1.4,4.53,3.22,6.78,4.84-.14.26-.28.52-.42.78-.77-.39-1.59-.71-2.29-1.2-5.13-3.5-10.62-6.24-16.53-8.21-7.09-2.36-14.3-3.79-21.78-4.06-14.42-.51-28.66,1.07-42.83,3.56-1.42.25-2.81.61-4.22.92Z"/>
        <path class="cls-2" d="M176.03,102.34c-.14,1.42-.28,2.84-.4,4.26-2.21,24.58-.77,48.89,5.31,72.86,1.69,6.68,4.45,12.92,7.48,19.17-1.18-1.81-2.45-3.57-3.51-5.44-4.97-8.76-7.11-18.43-8.73-28.22-2.15-12.98-3.13-26.05-2.8-39.22.19-7.86.62-15.69,1.87-23.46.26.02.53.03.79.05Z"/>
        <path class="cls-2" d="M297.13,226.92c29.79-14.11,58.75-29.44,82.75-52.65-22.89,24.95-52.25,39.73-82.75,52.65Z"/>
        <path class="cls-2" d="M335.83,95.63c-11.4,22.75-23.48,45.08-40.82,63.98-.29-.16-.59-.32-.88-.48.45-.89.79-1.87,1.38-2.65,1.55-2.07,3.2-4.06,4.84-6.06,11.12-13.5,19.96-28.51,28.78-43.53,2.21-3.77,4.46-7.51,6.7-11.27Z"/>
        <path class="cls-2" d="M255.07,37.59c-1.63,4.93-5.26,8.79-7.53,13.39-2.39,4.83-4.99,9.56-7.36,14.4-2.32,4.73-4.58,9.5-6.65,14.35-2.05,4.8-3.83,9.73-5.41,13.81,1.58-12.9,19.7-51.33,26.96-55.95Z"/>
        <path class="cls-2" d="M222.58,226.9c3.83.05,7.47.32,11.08.1,7.02-.42,13.71-2.54,20.26-4.87,10.17-3.62,20.19-7.64,30.27-11.49.58-.22,1.15-.45,1.95-.24-.7.44-1.38.94-2.12,1.32-13.72,6.92-28.09,12.09-42.96,15.9-4.6,1.18-9.29,1.71-14.03,1-1.55-.23-3.28-.22-4.46-1.7Z"/>
        <path class="cls-2" d="M314.53,44.09c-.21,1.6-.31,3.23-.64,4.81-1.59,7.63-4.63,14.76-7.88,21.77-4.28,9.25-8.82,18.37-13.27,27.54-.34.7-.79,1.34-1.32,1.95,7.39-18.73,17.16-36.51,21.98-56.24.38.06.75.11,1.13.17Z"/>
        <path class="cls-2" d="M304.65,166.85c-16.83,11.19-33.67,22.38-50.52,33.55-.18.12-.6-.11-.96-.19,4.38-4.89,36.45-25.98,51.48-33.35Z"/>
        <path class="cls-2" d="M248.97,219.58c19.33-7.19,36.78-17.95,54.29-28.62-10.11,8.5-41.24,27.05-54.29,28.62Z"/>
        <path class="cls-2" d="M328.66,168.36c11.6-10.13,23.21-20.26,34.81-30.38.13.08.25.15.38.23-.28.62-.43,1.37-.87,1.85-1.65,1.83-3.3,3.69-5.13,5.34-9.16,8.29-18.71,16.1-29.19,22.97Z"/>
        <path class="cls-2" d="M194.29,18.9c-2.13,7.89-4.36,15.75-6.37,23.67-2.01,7.93-3.81,15.91-5.26,22.02,1.8-14.42,4.49-30.58,10.29-46.04.45.11.89.23,1.34.34Z"/>
        <path class="cls-2" d="M237.54,165.2c7.87-16.73,15.79-33.56,23.43-49.8-.31,5.02-17.2,41.26-23.43,49.8Z"/>
        <path class="cls-2" d="M64.83,146.38c15.04-3.1,30.07-6.82,45.25-1.5,0,.29.02.58.03.86-.46,0-.98.15-1.39,0-6.38-2.3-13.01-2.3-19.61-1.81-7.58.57-15.13,1.56-22.69,2.36-.53.06-1.06.06-1.58.08Z"/>
        <path class="cls-2" d="M365.45,90.19c-1.9,8.04-13.76,27.56-20.32,33.3,7.27-10.97,13.85-21.85,19.41-33.32.04-.08.4,0,.91.02Z"/>
        <path class="cls-2" d="M252.37,188.93c-.91,1.51-1.73,3.09-2.76,4.51-3.93,5.44-7.74,10.99-11.99,16.17-1.94,2.36-4.77,4-7.27,5.87-.62.46-1.55.51-2.64.24.3-.36.53-.87.92-1.07,4.91-2.55,8.58-6.46,11.86-10.76,3.53-4.63,6.92-9.37,10.37-14.06.33-.44.67-.87,1.01-1.3.17.14.33.27.5.41Z"/>
        <path class="cls-2" d="M284.19,256.33c12.49-1.56,24.99-3.11,36.66-4.57-4.76,2.55-29.1,6.02-36.66,4.57Z"/>
        <path class="cls-2" d="M248.14,62.17c4.02-9.65,7.98-19.29,13.76-28.01.11,2.32-7.87,18.4-13.76,28.01Z"/>
        <path class="cls-2" d="M11.14,170.96c7.78-4.89,15.95-8.89,24.91-11.34-1.95,1-3.89,2.01-5.85,2.99-2.1,1.05-4.22,2.07-6.32,3.12-2.1,1.05-4.14,2.25-6.3,3.17-2.06.88-3.76,2.83-6.44,2.05Z"/>
        <path class="cls-2" d="M302.32,154.18c6.66-7.42,13.33-14.85,19.99-22.27.19.17.37.33.56.5-6.32,7.75-12.42,15.67-19.64,22.63-.3-.28-.61-.57-.91-.85Z"/>
        <path class="cls-2" d="M174.15,168.72c-2.6-5.9-4.65-21.51-4.06-31.44,1.34,10.36,2.73,21.12,4.06,31.44Z"/>
        <path class="cls-2" d="M370.55,136.62c-.8,4.04-10.13,13.44-16.37,17.02,5.61-5.83,10.99-11.42,16.37-17.02Z"/>
        <path class="cls-2" d="M190.49,46.37c.88-7.91,2.15-15.77,5.4-23.15-.7,7.96-3.97,15.33-5.4,23.15Z"/>
        <path class="cls-2" d="M356.98,112.44c3.25-5.85,6.22-11.23,9.57-17.26.07,3.98-5.09,12.98-9.57,17.26Z"/>
      </g>
      <path class="cls-2" d="M157.58,168c-.65-1.53-1.29-3.07-1.96-4.6-9.02-20.73-13.39-42.44-13.19-65.01.11-12.17,1.55-24.24,3.99-36.2,2-9.82,4.09-19.6,7.61-29.01,3.08-8.24,6.63-16.29,12.05-23.28,2.18-2.81,4.78-5.46,7.68-7.5,5.61-3.96,10.9-2.95,14.98,2.61,1.65,2.24,2.83,4.85,4.02,7.39,2.63,5.6,4.92,11.36,7.75,16.86,4.66,9.06,6.42,18.71,6.16,28.73-.29,11.2-2.55,22.11-5.69,32.84-.22.74-.26,1.53.05,2.55.48-.87.97-1.74,1.44-2.62,6.41-12.21,13.72-23.81,23.58-33.6,14.72-14.62,31.79-24.97,52.44-28.93,8.57-1.64,16.57-.49,24.16,3.64,8.22,4.47,13.73,11.12,15.98,20.35,2.07,8.52,2.61,17.1,1.32,25.78-.13.88-.28,1.76.03,2.92.63-.67,1.3-1.31,1.88-2.02,2.74-3.33,5.78-6.29,9.67-8.3,6.68-3.44,13.2-3.19,19.6.66,3.94,2.37,7.13,5.57,9.37,9.55,3.37,5.98,6.66,12.02,9.66,18.2,2.37,4.88,2.07,10.09.54,15.18-2.8,9.35-7.68,17.47-14.67,24.3-.23.23-.41.51-1.21,1.49,1.8-.52,2.88-.81,3.95-1.15,5.37-1.73,10.76-3.07,16.47-3.35,12.17-.6,17.6,7.52,18.36,16.41.61,7.16-.62,14.1-2.81,20.94-5.28,16.54-15.37,29.63-28.69,40.45-1.13.92-2.23,1.86-3.06,3.33,1.52-.78,3.09-1.48,4.55-2.36,6.65-4.02,13.22-8.19,19.93-12.1,4.66-2.72,9.44-5.28,14.31-7.62,3.56-1.71,7.35-2.86,11.44-2.03,3.7.75,4.98,2.47,4.51,6.16-.41,3.22-1.94,5.96-3.56,8.68-6.65,11.11-16.12,19.29-27.02,25.96-25.33,15.52-52.85,23.7-82.54,24.49-19.84.52-38.69-3.54-56.25-12.92-3.35-1.79-6.72-3.83-9.44-6.43-6.47-6.19-17.77-4.96-22.98-.22-1.9,1.73-3.78,3.6-5.2,5.72-5.41,8.08-9.95,16.67-12.36,26.11-1.44,5.64-2.17,11.52-2.72,17.33-.91,9.52-1.37,19.08-2.1,28.61-.59,7.74-.98,15.52-2.03,23.2-1.11,8.13-2.49,16.27-4.49,24.22-3.26,12.97-7.29,25.75-10.68,38.69-2.31,8.82-4.38,17.72-5.99,26.68-1.33,7.41-1.91,14.96-2.67,22.46-.74,7.28-1.2,14.58-1.93,21.86-1.11,11.09-2.12,22.2-3.6,33.25-1.82,13.62-4.08,27.18-6.18,40.77-.12.77.04,1.98-1.85,1.61.08-.98.1-2.04.26-3.07.98-6.23,2.14-12.44,2.98-18.69,2.07-15.52,4.22-31.03,5.9-46.59,1.48-13.65,2.31-27.37,3.56-41.04.39-4.25,1-8.52,1.93-12.69,2.64-11.86,5.34-23.72,8.33-35.5,1.94-7.62,4.59-15.06,6.63-22.66,2.63-9.78,5.21-19.58,5.95-29.76.59-8.08,1.54-16.13,2.18-24.21.69-8.75,1.22-17.51,1.77-26.27.87-13.93,4.43-27.04,11.62-39.1,2.96-4.96,5.25-10.2,5.8-16.05.37-3.96.09-7.87-1.03-11.69-.89-3.03-2.63-5.29-5.57-6.82-7-3.65-13.31-8.34-19.43-13.35-12.48-10.22-25.7-19.37-40.32-26.35-24.65-11.76-50.02-12.78-75.92-4.85-14.56,4.46-27.88,11.43-40.37,20.1-3.6,2.5-7.41,4.7-11.21,6.9-1.24.72-2.7,1.14-4.12,1.44-2.18.46-4.04-.29-5.3-2.14C1.44,192.78,0,188.84,0,184.6c0-1.68.75-3.59,1.75-4.98,1.75-2.45,3.86-4.68,6-6.82,1.58-1.59,3.41-2.95,5.19-4.32,3.55-2.74,6.04-6.23,8.17-10.17,3.42-6.32,7.06-12.54,10.92-18.6,5.58-8.74,13.62-14.69,23.11-18.52,12.08-4.87,24.73-6.65,37.72-5.62,6.03.48,11.56,2.76,17,5.27,12,5.54,22.06,13.46,29.92,24.11,5.28,7.16,10.57,14.32,15.81,21.51.46.63.64,1.45.95,2.19.35-.22.69-.43,1.04-.65ZM186.49,139.48c-.32,4.6-.97,9.2-.89,13.79.32,18.4,5.65,35.46,14.36,51.53,2.22,4.09,5.32,7.48,9.16,10.23,4.26,3.04,8.91,3.49,13.42,1.46,7.48-3.37,14.99-6.85,21.98-11.11,8.4-5.13,14.91-12.31,18.62-21.66,2.39-6.03,3.3-12.39,3.74-18.81.43-6.22,1.34-12.34,3.87-18.07,2.09-4.72,4.53-9.28,6.73-13.95,2.82-5.97,6.55-11.28,11.28-15.89,3.15-3.07,6.39-6.03,9.56-9.07,6.79-6.52,12.55-13.84,16.86-22.24,1.07-2.08,2.17-4.28,2.59-6.54,1.81-9.79,1.15-19.5-1.78-29.02-4.38-14.23-20.39-21.65-30.92-20.75-10.19.87-19.92,3.66-29.04,8.3-14.79,7.51-27.29,17.82-37.46,30.96-6.86,8.86-12.31,18.57-17.2,28.59-6.57,13.48-12.2,27.32-14.87,42.24ZM256.78,242.72c6.39.33,12.8,1.08,19.18.91,29.19-.8,55.63-9.85,79.13-27.25,15.51-11.49,28.03-25.29,33.93-44.2,2.03-6.51,3.23-13.1,2.72-19.93-.56-7.52-5.14-15.7-16.72-14.92-5.7.38-11.12,1.64-16.42,3.52-7.03,2.5-14.25,4.05-21.62,5.11-5.11.74-10.24,1.56-15.23,2.86-12.51,3.28-24.05,8.8-35.04,15.6-3.35,2.07-5.98,4.49-7.95,7.97-9.44,16.7-22.77,29.49-39.68,38.49-4.77,2.53-9.74,4.68-14.6,7.03-2.86,1.38-3.55,3.02-2.45,6,.38,1.04.92,2.08,1.6,2.94,2.4,3.01,5.17,5.6,8.63,7.43,7.73,4.09,15.88,6.84,24.52,8.45ZM201.99,212.62c-.66-1.35-1.01-2.21-1.49-3-5.81-9.6-10.04-19.88-13.05-30.67-3.95-14.19-4.93-28.5-1.98-43.05,1.9-9.41,5.25-18.34,8.27-27.4,2.63-7.88,5.39-15.75,7.36-23.8,1.76-7.19,2.83-14.59,3.62-21.96,1.16-10.79-.17-21.3-4.94-31.23-3.11-6.49-5.96-13.1-9.09-19.58-1.21-2.51-2.63-5.01-4.41-7.13-2.87-3.43-6.39-4.08-10.27-1.8-2.47,1.46-4.98,3.3-6.67,5.56-3.29,4.39-6.38,9-8.89,13.87-5.49,10.65-8.62,22.13-11.21,33.81-3.64,16.45-5.69,33.02-5,49.88,1,24.46,7.21,47.52,19.09,68.96,7.71,13.92,18.18,25.4,31.41,34.31,2,1.35,4.03,2.72,7.26,3.22ZM283.93,163.38c.19.15.38.29.57.43.86-.51,1.73-.99,2.57-1.53,14.49-9.3,30.13-15.58,47.28-17.84,3.01-.4,5.99-1.07,9-1.31,4.17-.33,7.45-2.27,10.42-5,7.56-6.96,12.63-15.47,15.43-25.3,1.22-4.29,1.38-8.78-.65-12.88-3.05-6.14-6.31-12.19-9.67-18.17-2.01-3.57-4.88-6.43-8.36-8.68-5.93-3.83-11.98-4.03-18.22-.78-4.51,2.35-7.89,5.97-10.92,9.9-1.34,1.74-2.47,3.74-3.28,5.79-1.52,3.86-2.43,7.99-4.15,11.74-4.96,10.82-10.23,21.5-15.32,32.26-4.94,10.44-9.81,20.9-14.7,31.36ZM7.14,197.03c4.18-.64,7.23-2.35,10.17-4.22,6.48-4.11,12.55-8.68,18.03-14.13,8.48-8.43,17.6-16.16,27.75-22.56,7.26-4.58,14.81-8.56,23.23-10.67,8.1-2.02,16.27-3.7,24.65-3.06,11.34.87,21.44,5.02,29.85,12.78,3.8,3.51,7.31,7.34,10.96,11.01.65.65,1.36,1.25,2.04,1.87-.36-1.52-1.09-2.64-1.89-3.72-4.44-5.96-8.95-11.88-13.34-17.88-8.55-11.68-19.73-19.94-32.99-25.48-4.26-1.78-8.63-3.31-13.3-3.62-11.14-.74-22.03.64-32.61,4.17-10.9,3.63-20.02,9.83-26.33,19.58-3.9,6.03-7.51,12.28-10.92,18.6-2.08,3.84-4.55,7.21-7.96,9.92-1.77,1.4-3.6,2.74-5.21,4.31-2.08,2.04-4.04,4.23-5.9,6.48-1.6,1.94-2.07,4.26-1.31,6.68.74,2.35,1.53,4.71,2.56,6.94.53,1.14,1.65,2.01,2.51,3.01ZM240.47,240.63c1.01.66,1.71,1.2,2.47,1.63,9.98,5.63,20.66,9.41,31.85,11.67,13.46,2.73,27.05,2.63,40.64,1.04,27.03-3.16,51.75-12.46,74.05-28.09,7.85-5.5,14.33-12.33,19.25-20.57,1.26-2.1,2.34-4.38,3.07-6.71,1.12-3.52-.04-5.04-3.69-5.52-3.14-.41-6.1.45-8.82,1.79-5.25,2.59-10.43,5.33-15.51,8.22-8.71,4.95-17.28,10.15-26.01,15.05-3.72,2.09-7.89,3.41-11.53,5.61-15.21,9.19-31.45,15.51-48.97,18.61-12.95,2.29-25.92,3.02-38.94.97-5.85-.92-11.62-2.39-17.87-3.7ZM161.28,184.63c.13-.21.26-.43.39-.64-.36-.41-.71-.85-1.09-1.24-5.17-5.33-10.31-10.69-15.54-15.97-2.93-2.95-5.88-5.91-9.04-8.61-7.52-6.43-16.19-10.63-26.01-11.93-13.3-1.76-25.95.62-37.9,6.81-12.72,6.59-23.59,15.66-34.13,25.19-.33.3-.53.76-.79,1.14,42.47-22.41,83.83-22.76,124.11,5.24ZM315.61,90.33c-.27-.14-.55-.28-.82-.41-.42.64-.85,1.28-1.25,1.93-3.94,6.48-8.69,12.31-14.14,17.56-2.84,2.73-5.71,5.43-8.56,8.14-9.13,8.69-14.47,19.36-16.55,31.71-1.18,6.99-2.16,14.02-3.34,21.01-.43,2.54-1.07,5.05-1.78,7.54-.74,2.6-1.66,5.14-2.5,7.71,1.24-.67,2.13-1.53,2.78-2.54,3.87-6.06,8.08-11.94,11.43-18.28,4.35-8.23,7.91-16.88,11.98-25.26,5.29-10.92,10.89-21.69,16.08-32.65,2.53-5.34,4.46-10.97,6.67-16.46Z"/>
    </g>
  </g>
</svg>