<?xml version="1.0" encoding="UTF-8"?>
<svg id="Capa_2" data-name="Capa 2" xmlns="http://www.w3.org/2000/svg" viewBox="0 0 82 88.08">
  <defs>
    <style>
      .cls-1 {
        fill: #b49883;
      }
    </style>
  </defs>
  <g id="Capa_1-2" data-name="Capa 1">
    <g>
      <path class="cls-1" d="M68.09,88.08h-8.95l-4.75-.26-9.73-.34-26.79-.5-6.05-.09c-1.45-.02-2.86-.35-4.23-.77C-.97,83.48-.27,70.97.31,63.82c.29-3.62.55-7.03.64-10.67l.48-18.99c.17-6.81.72-13.44,1.62-20.19-.17-.75-.48-1.48.02-2.18.36-.49.97-.89,1.72-.94l11.04-.77c-1.7-7.13-5.5-3.92-5.48-6.25,0-1.27,2-2.09,3.89-1.43,3.23,1.14,5.23,4.31,6.21,7.56l17.29-.32c-.15-1.61-.71-3.28-1.67-4.61-1.06-1.47-2.7-1.92-4.36-1.16-.4.18-1.18,0-1.53-.22-.32-.2-.8-.9-.53-1.34C30.69.81,32.69-.12,34.53.01c4.12.28,6.91,5.95,7.68,9.64l9.71.17c1.28.02,2.48-.11,3.79-.19-.84-2.12-2.38-4.6-4.56-5.39-.78-.28-1.21-.8-1.2-1.59,0-.54.38-1.42,1.11-1.45,4.79-.21,7.98,4,9.12,8.31,4.13-.14,8.07.03,12.12.73-.64-3.48-2.11-6.07-5.54-6.87-.9-.21-1.2-1.2-.96-1.99.22-.72.87-1.17,1.71-1.14,6.16.2,8.7,6.24,9.41,11.57,3.81,1.6,5.11,6.73,5.08,10.38l-.06,8.28c-.06,8.2.02,16.2-.13,24.4l-.18,9.82c-.07,3.66-.28,7.17-.7,10.79-.23,2.01-.6,3.93-1.24,5.82-.87,2.6-2.77,4.49-5.31,5.51-2.06.83-4.19.94-6.3,1.27ZM74.39,28.54c-1.17,1.5-2.95,1.76-4.57,1-1.03-.48-2.16-1.09-2.44-2.32-.14-.63.15-1.65.45-2.19.49-.87,1.35-1.17,2.23-.87,3.33,1.15,2.69-7.76,2.72-9.36-1.04-.25-1.96-.52-2.97-.57l-8.87-.46c.16,3.62-.4,7.8-2.72,10.56-1.52,1.8-3.8,2.19-5.89,1.21-1.07-.5-1.67-1.29-1.63-2.53.03-1.17.83-2.13,2.09-2.1,3.66.07,4.51-4.36,3.99-7.16l-14.1-.14c.03,4.22-1.57,9.87-6.57,10.08-1.38.06-2.63-.41-3.52-1.43-.98-1.12-1.04-2.78.16-3.8.44-.37,1.25-.28,1.77-.07,1.18.48,2.35.03,2.9-1.1s.79-2.38.78-3.68l-16.63.62c.3,2.35-.02,4.71-1.28,6.72-1.39,2.21-3.92,3.36-6.4,2.64-1.98-.57-3.12-2.35-2.79-4.37.13-.8.63-1.45,1.23-1.65,2.23-.76,2.27,2.13,3.91.4.52-1.14.79-2.25.67-3.59l-11.67.45c.31,5.19.35,10.22.08,15.42l-.71,13.77-.75,18.23c-.19,4.6-.21,9.01.28,13.55.16,1.49.79,2.79,1.85,3.81,2.83,2.71,6.38,4.11,10.29,4.4,2.63.19,5.08.03,7.78.07l37.1.51c2.34.03,4.42.18,6.67-.03,4.36-.41,7.86-3.13,9.21-7.31.68-2.12.99-4.28,1.02-6.56l.09-7.7c.06-5.58.28-10.94.18-16.55l-.38-21.16c-.03-1.84-.33-3.52-.84-5.22-.55,3.03-.87,6.09-2.73,8.47Z"/>
      <path class="cls-1" d="M57.31,77.44l-44.25-2.04c-.84-.04-1.61-.85-1.57-1.6l.9-19.28c.27-5.9.73-11.56,1.47-17.39.06-.5.37-.97.66-1.17.43-.3.99.05,1.48,0,18.39-1.74,35.9-3.19,54.39-1.65.53.04.94.38,1.15.69.34.49-.1.95-.1,1.43l-.29,32.51c-.02,2.67,1.2,7.9-3.44,8.98-1.48.34-3.05.37-4.61.19l-5.8-.67ZM66.12,74.49c1.23.07,2.06-.79,1.98-1.91-.04-.52-.25-1.25-.22-1.71l.2-3.8c-.09-1.64-.29-3.15-.27-4.83l.29-25.17-25.12.68-26.62.37c.09,5.83-.02,11.35-.36,17.09l-1.02,17,44.66,1.89,6.49.39Z"/>
      <path class="cls-1" d="M41.02,62.66c-3.79-1.46-9.35-4.88-11.05-8.71-.81-1.82-.4-4,1.21-5.2,1.08-.8,2.53-.76,3.77-.28,2.68,1.03,4.18,3.68,5.74,6.04,1.49-2.76,5.3-8.69,8.82-8.21,2.86.39,4.37,3.44,3.35,6.05-.6,1.53-1.42,2.82-2.52,4.06-2.03,2.28-4.52,4.43-7.01,5.97-.51.32-1.79.48-2.31.28Z"/>
    </g>
  </g>
</svg>