<?xml version="1.0" encoding="UTF-8"?>
<svg id="Capa_2" data-name="Capa 2" xmlns="http://www.w3.org/2000/svg" viewBox="0 0 103.34 90">
  <defs>
    <style>
      .cls-1 {
        fill: #b49883;
      }
    </style>
  </defs>
  <g id="Capa_1-2" data-name="Capa 1">
    <g>
      <path class="cls-1" d="M1.87,49.05c-.68-3.16-1.31-5.87-1.81-8.91-.27-1.62.44-3.22,1.7-4.21,3.21-2.51,5.05-1,6.68-2.72l-.5-3.65c-.08-.6.58-1.34,1.18-1.49l12.91-3.17c.4-.1,1.26.27,1.36.62l1.37,5.13,14.04-3.23,2.83-8.96c.79-2.49,2.57-4.25,5.15-4.74l9.74-2.37c1.49-.36,2.85-.69,4.41-1.01,1.22.18,2.49.66,3.25,1.71l5.89,8.09,15.4-3.57c3.24-.75,6.32,1.19,7.07,4.48l5.22,22.89,3.57,14.63c.93,3.83,3.38,9.47-1.46,11.55-1.28.55-2.54.92-4,1.26l-42.28,9.74-33.2,7.66c-1.92.44-3.7,1.1-5.54,1.19-2.9.14-4.49-1.58-5.06-4.23L1.87,49.05ZM43.35,26.39l24.15-5.6-5.05-7c-.63-.88-1.53-1.13-2.57-.77l-13.05,3.18c-.86.21-1.29.79-1.48,1.59l-2,8.61ZM98.83,58.52l-3.54-14.51-5.03-22.16c-.48-2.12-2.06-3.23-4.29-2.94l-45.2,10.54-14.17,3.26,10.7,47.71,60.73-13.4c3.64-.8,1.45-5.79.79-8.5ZM22.39,31.2l-.97-3.65-10.22,2.5.81,3.56,10.38-2.41ZM22.59,45.94c1.54-.48,2.4-1.77,2.76-3.1l.54-2.3-1.64-7.28-12.78,2.88-5.02.94c-1.1.27-1.85,1.19-1.67,2.44.48,3.44,1.18,6.75,1.98,10.15,5.52-.89,10.61-2.11,15.83-3.73ZM14.27,83.6c.6,1.3,1.62,1.67,2.96,1.65l5.95-1.51,11.77-2.79-7.98-35.59c-1.26,1.83-2.84,2.74-4.83,3.28-4.89,1.33-9.72,2.61-14.87,3.37l6.04,27.56.96,4.02Z"/>
      <path class="cls-1" d="M97.53,12.77c-.7.22-1.38-.19-1.55-.72-.22-.7.15-1.37.86-1.6l4.92-1.57c.61-.19,1.37.23,1.51.69.22.71-.13,1.41-.8,1.62l-4.94,1.58Z"/>
      <path class="cls-1" d="M93.22,7.79c-.34.55-1.09.72-1.49.55-.6-.25-.99-1.11-.63-1.7l2.45-3.98c.3-.48,1.09-.66,1.63-.4.46.22.77,1.11.44,1.64l-2.4,3.89Z"/>
      <path class="cls-1" d="M88.28,4.83c.08.59-.5,1.24-.92,1.3-.72.11-1.37-.33-1.48-1.06l-.52-3.66c-.09-.64.39-1.29.97-1.4s1.31.35,1.4.99l.54,3.83Z"/>
      <path class="cls-1" d="M61.13,30.17c11.31-.21,20.38,8.84,20.61,19.79s-8.62,20.39-19.66,20.68c-11.2.3-20.51-8.54-20.82-19.65s8.48-20.61,19.87-20.82ZM60.91,32.59c-10.05.33-17.65,8.81-17.22,18.62.42,9.76,8.74,17.43,18.61,17.01,9.69-.41,17.38-8.65,17.02-18.48-.35-9.61-8.43-17.47-18.41-17.15Z"/>
      <path class="cls-1" d="M14.35,61.82c-.99.23-1.65-.33-1.8-1.23l-.69-4.12c-.15-.87.01-1.54.97-1.77l10.82-2.61c.56-.14,1.31.23,1.48.76.43,1.32,1.96,6,.18,6.42l-10.96,2.55ZM14.8,59.29l8.9-2.08-.52-2.52-8.76,2.12.39,2.48Z"/>
      <path class="cls-1" d="M9.94,39.63c1.55-.58,3.08.25,3.59,1.6.53,1.44-.17,3.05-1.64,3.59-1.34.49-2.89-.12-3.49-1.47s-.07-3.12,1.55-3.72Z"/>
      <path class="cls-1" d="M17.49,38.95c1.16-.16,2.11.67,2.3,1.61.24,1.23-.55,2.28-1.64,2.48-1.17.21-2.24-.55-2.43-1.69s.55-2.24,1.78-2.4Z"/>
      <path class="cls-1" d="M50.47,21.29c-.73.19-1.42-.28-1.55-.83-.14-.6.22-1.32.91-1.5l7.17-1.86c.59-.15,1.26.34,1.4.84.16.54-.2,1.32-.84,1.49l-7.08,1.85Z"/>
      <path class="cls-1" d="M57.83,63.07c-6.35-1.88-10.27-8.12-9.4-14.52.57-4.15,3.15-7.63,6.37-9.49,3.96-2.28,8.5-2.6,12.45-.68,4.04,1.97,6.73,5.9,7.3,10.32.57,4.43-1.12,8.73-4.29,11.54-3.33,2.96-7.97,4.15-12.44,2.82ZM58.45,60.73c3.54,1.08,7.14.22,9.88-1.99,2.5-2.02,4.06-5.22,3.93-8.72-.15-3.93-2.38-7.71-6-9.43-6.29-2.99-13.86.81-15.29,7.6-1.15,5.45,2.08,10.9,7.49,12.54Z"/>
      <path class="cls-1" d="M57.57,47.97c-1.9,4.25,1.61,5.75-.07,6.9-2.06,1.41-4.04-3.95-2.1-7.92.3-.61,1.05-.8,1.62-.57.5.2.8,1.02.55,1.58Z"/>
    </g>
  </g>
</svg>