<?xml version="1.0" encoding="UTF-8"?>
<svg id="Capa_2" data-name="Capa 2" xmlns="http://www.w3.org/2000/svg" viewBox="0 0 95.88 90">
  <defs>
    <style>
      .cls-1 {
        fill: #b49883;
      }
    </style>
  </defs>
  <g id="Capa_1-2" data-name="Capa 1">
    <g>
      <path class="cls-1" d="M74.34,76.47c-11.99,13.51-31.52,16.8-47.94,10.33C10.31,80.45.26,64.62,0,47.53S9.99,15.92,25.14,8.69c7-4.17,14.91-5.72,23.01-4.94,6.31.6,12.26,1.98,17.89,4.8,8.13,4.07,14.19,10.87,17.3,19.4,1.73,4.74,2.38,9.43,2.69,14.54.75,12.39-3.44,24.69-11.68,33.98ZM83.71,41.29c-.31-4.69-1.02-8.91-2.61-13.17-3.08-8.21-9.12-14.55-17.1-18.18-5.24-2.38-10.69-3.49-16.46-4.02-15.1-1.37-27.58,6.53-35.1,19.2-4.07,6.86-5.89,14.62-5.02,22.63,1.35,12.34,8.52,23.46,19.37,29.62,12.44,7.06,27.89,6.47,39.88-1.48,11.3-7.49,17.96-20.59,17.04-34.59Z"/>
      <path class="cls-1" d="M75.84,10.87c-.11.79-.52,1.23-1.17,1.24-.55,0-1.16-.58-1.07-1.25.47-3.55,1.36-6.86,2.73-10.18.21-.5.88-.75,1.3-.66.58.12,1,.83.75,1.46-1.2,3.04-2.08,6.03-2.53,9.39Z"/>
      <path class="cls-1" d="M82.58,15.32c-.49.38-1.36.07-1.56-.31-.23-.45-.16-1.16.29-1.5l7.5-5.8c.47-.36,1.3-.08,1.59.42.2.35.1,1.09-.35,1.44l-7.46,5.76Z"/>
      <path class="cls-1" d="M95.13,22.28c-1.61.52-9.4,2.49-9.54.21-.04-.6.49-1.16,1.2-1.16,2.7,0,5.16-.38,7.72-1.17.53-.16,1.22.27,1.33.69.15.57-.13,1.24-.71,1.43Z"/>
      <path class="cls-1" d="M37.99,60.95c-3.69-3.24-7.09-6.44-10.37-9.98-1.89-2.05-1.84-4.99.15-6.82,2.06-1.9,5.05-1.54,6.91.6,1.59,1.84,3.23,3.54,4.95,5.29,7.15-7.15,14.53-13.64,22.19-20.04,1.8-1.51,4.08-1.57,5.78-.02,1.58,1.45,1.91,4.27.12,5.88l-15.44,13.85-12.52,11.35c-.54.49-1.21.39-1.78-.12Z"/>
    </g>
  </g>
</svg>