<?xml version="1.0" encoding="UTF-8"?>
<svg id="Capa_2" data-name="Capa 2" xmlns="http://www.w3.org/2000/svg" viewBox="0 0 299.56 319">
  <defs>
    <style>
      .cls-1 {
        fill: #e8e2d4;
      }
    </style>
  </defs>
  <g id="Capa_1-2" data-name="Capa 1">
    <g>
      <path class="cls-1" d="M293.48,85.19c.8-19.79.57-37.95-.31-57.01-.28-6.06-1.13-11.78-2.38-17.71-.51-2.42-2.93-4.5-5.46-4.54-5.59-.1-10.91.19-16.37,1.19-46.38,8.49-124.8,35.02-169.9,52.18-3.12,1.19-5.05,2.86-5.3,6.1-.67,8.77-1.14,17.18-1.05,26.13l.65,65.05c.13,13.05-.2,25.37-.83,38.26-.43,2.98-.72,5.7-2.16,8.38-2.34-36.93-3.82-73.18-3.8-110.13,0-11.37.54-21.84,1.93-32.86.46-3.64,2.66-6.27,5.95-7.61,9.16-3.74,17.82-7.01,27.44-10.03,45.97-14.46,92.07-26.84,139.12-37.35,10.33-2.31,19.87-3.91,30.24-5.18,2.67-.33,4.96,1.19,5.43,3.79,1.39,7.54,2.12,14.79,2.38,22.58.75,22.16.64,43.54-.16,65.86l-3.81,106.97c-.83,23.33-8.61,45.13-26.54,60.42-12.76,10.88-28.61,14.84-45.19,11.11-22.43-5.05-40.17-23.86-40.37-47.59-.15-16.64,7.08-32.49,18.05-44.51,16.64-18.25,41.54-20.05,63.5-11.72-11.15-.89-21.26-1.2-31.74,1.45-18.59,4.71-32.61,17.86-38.9,35.98-5.52,15.91-3.36,33.44,7.46,46.56,7.3,8.86,17.97,12.69,29.21,13.58,18.52,1.46,34.91-6.54,45.1-21.85,9.45-14.2,12.66-30.08,13.35-47.22l4.47-110.29Z"/>
      <path class="cls-1" d="M15.6,304.07c-11.77-9.93-16.77-23.39-15.38-38.12,1.26-13.36,4.73-25.86,12.36-36.85,18.18-26.16,49.22-25.09,73.54-11.14-10.9-2.56-20.26-4.83-30.7-4.03-17.67,1.36-32.76,11.01-40.56,27.05-5.4,11.11-7.94,23.6-6.33,36.05,1.02,7.89,5.73,14.56,11.65,19.74,12.48,10.9,29.49,15.62,45.92,12.72,11.25-1.98,20.51-8.64,27.26-17.66,11.78-15.72,15.73-34.77,15.32-54.41l-1.83-87.48c-.17-8.08.43-15.3,1.01-23.33.15-2.12,1.91-4.43,3.88-5.21,7.69-3.04,14.68-5.65,22.71-8.06,38.61-11.62,77.29-21.45,116.82-29.53,8.37-1.71,15.86-2.71,24.32-3.64,6.42-.71,7.42,11.6,7.87,16.9,1.56,18.55,1.01,51.65-6.17,68.67l.88-22.19c.77-19.27-.56-37.81-1.61-57.72-9.16,1.37-17.07,2.73-25.79,4.93l-103.8,26.16c-10.04,2.53-18.94,5.65-28.66,9.05-1.91.67-3.83,2.91-4.02,4.94-.71,7.72-1.24,14.95-1.03,22.74l1.31,49.37c.44,16.71,1.21,32.7.84,49.37-.68,30.19-14.78,61.4-48.04,65.94-18.56,2.53-37.25-2.01-51.77-14.25Z"/>
    </g>
  </g>
</svg>