<?xml version="1.0" encoding="UTF-8"?>
<svg id="Capa_2" data-name="Capa 2" xmlns="http://www.w3.org/2000/svg" viewBox="0 0 92.43 111.7">
  <defs>
    <style>
      .cls-1 {
        fill: #e8e2d4;
      }
    </style>
  </defs>
  <g id="Capa_1-2" data-name="Capa 1">
    <path class="cls-1" d="M91.05,52.28l-1.09,44.95c-.02.96-.26,1.55-1.16,1.87-6.29,2.38-12.42,4.69-18.94,6.45l-22.8,6.16-16.57-4.93-27.41-7.98c-.29-.17-.79-.68-.79-1.06l-.68-45.4c-.41-.17-1.26-.63-1.29-.97-.35-4.89-.39-9.79-.24-14.7.03-.83.54-1.32,1.28-1.49l11.57-2.66c-4.01-8.8-3.12-20.87.8-29.56.68-1.52,2.48-2.26,4.01-2.64,6.75-1.67,12.16,3.71,16.01,8.58l9.82,12.41c2.39-.43,4.44-.25,6.65.73l3.94-3.57c6.23-5.95,13.62-11.78,21.82-14.58,1.96-.67,3.92-.45,5.35.83,1.42,1.28,2.22,3.06,1.67,5.08l-.34,11.98c-.11,3.92-.83,7.6-2.35,11.29l10.73,2.35c.46.1.79,1.08.88,1.55l.49,13.57c.03.75-.47,1.35-1.38,1.73ZM30.56,9.04c-1.79-2.14-3.65-3.87-5.87-5.26-2.57-1.29-5.53-1.84-8.07-.23,6.8,6.36,13.94,11.75,22.23,16.05-2.67-3.68-5.36-7.07-8.28-10.56ZM22.96,38.23l14.79-4.96c-2.2-3.42-1.67-7.8,1.88-10.29-8.99-4.63-16.94-10.22-24.35-17.15-2.37,6.56-2.95,13.43-1.79,20.16.65,3.8,2.42,7.12,4.94,9.9,1.32,1.2,2.69,2.24,4.54,2.34ZM56.89,19.56c8.66-2.92,16.09-7.23,23.34-12.13-.65-1.28-2-1.62-3.32-1.17-7.41,2.55-14.61,7.99-20.02,13.29ZM76.98,34.08c2.1-3.69,2.99-7.77,3.11-12.06l.33-11.61c-8.68,5.8-17.67,10.39-27.88,13.33,1.35,1.69,2.03,3.57,1.87,5.73l12.03,4.93c3.35,1.37,8.43,3.73,10.53-.31ZM48.96,34.02c1.86-1.07,2.78-2.88,2.9-4.86.14-2.19-1.05-4.11-3.1-4.94-2.47-1-5.28-.73-7.53.71-2.05,1.31-2.82,3.8-1.8,6.06,1.61,3.56,6.05,5.03,9.53,3.04ZM75.48,101.1c.35-5.02.56-9.35.57-14.16.02-15.15-.67-30.09-2.09-45.18-1.12-1.08-2.23-2.24-3.35-3.12l-7.12-2.71-9.64-3.92c-.64,1.24-1.11,1.97-1.92,3.08,5.14,1.72,10.12,3.54,15.13,5.64.42.18.95.7.98,1.2,1.36,20.8,2.01,40.4,1.01,61.18l6.44-2.01ZM16.59,37.79l-2.29-2.95-6.26,1.45,8.55,1.5ZM27.12,42.16c.05-.7.69-1.05,1.14-1.2,4.33-1.37,8.43-2.81,12.66-4.6-.3-.36-1.14-1.07-1.6-.92l-18.33,6.13c-1.36,19.94-1.31,39.81.19,59.72l6.38,1.88c-1.79-20.53-2-40.61-.45-61.02ZM85.36,36.8l-6.24-1.35c-.97,1.96-2.62,2.63-4.45,3.55l10.69-2.2ZM47.5,43.95l14.16-2.62c-4.23-1.71-8.37-3.08-12.72-4.5-1.16.82-2.75.24-3.89.69l-9.76,3.85,12.22,2.59ZM17.79,52.95l.67-12.22-15.87-2.75c-.08,4.11-.03,7.84.18,11.91l15.02,3.07ZM89.87,49.85l-.44-11.26-12.97,2.69,1.05,11.28,12.36-2.71ZM46.39,46.33l-15.99-3.34c-.36.2-.62.36-.85.55l-.6,11.56,17.59,3.74-.15-12.52ZM66.27,55.37l-.71-12.06-16.62,2.94.2,12.57,17.13-3.45ZM18.57,100.49c-1.06-15.05-1.36-29.95-.86-44.95l-13.52-2.74.65,43.83,13.74,3.86ZM78.12,100.25l9.29-3.41,1.05-44.02-10.79,2.34c.65,11.08,1.32,21.96.9,32.99l-.45,12.1ZM46.2,108.74c.54-15.81.49-31.27.38-47.25l-17.73-3.81c-.5,15.61-.06,30.95,1.38,46.37l15.96,4.69ZM66.37,103.93c.5-9.21.71-18.19.6-27.39l-.59-18.55-17.26,3.46-.33,47.18,17.57-4.7Z"/>
  </g>
</svg>