<?xml version="1.0" encoding="UTF-8"?>
<svg id="Capa_2" data-name="Capa 2" xmlns="http://www.w3.org/2000/svg" viewBox="0 0 82 78.7">
  <defs>
    <style>
      .cls-1 {
        fill: #b49883;
      }
    </style>
  </defs>
  <g id="Capa_1-2" data-name="Capa 1">
    <g>
      <path class="cls-1" d="M36.02,78.49C13.1,76.48-2.5,55.38.33,33.25,1.78,21.91,8.17,12.15,17.75,6.08,23.74,2.28,30.31.64,37.33.13c11.3-.82,22.48,2.21,31.22,9.46,11.16,9.27,15.97,23.98,12.19,38.05-1.08,4.03-2.76,7.54-4.86,11.28-4.14,7.38-10.75,13.67-18.77,16.82-6.66,2.62-13.9,3.37-21.08,2.74ZM27.43,70.75c13.65,6.58,30.92,3.75,41.56-6.77,7.54-7.45,11.5-17.92,10.82-28.54-.55-8.58-4.37-16.46-10.53-22.37C59.23,3.44,44.56-.22,31.16,3.53c-6.04,1.69-11.33,4.87-15.58,9.44C7.08,22.1,3.4,35.55,7.34,47.65c3.27,10.05,10.45,18.47,20.08,23.11Z"/>
      <path class="cls-1" d="M66.89,40.6h-19.83c-.56,1.67-1.65,3.06-3.38,3.59-1.83.56-3.72-.15-4.94-1.47-1.28-1.37-1.7-3.22-.99-5.18l-18.02-18.02c-.38-.38-.24-1.2.07-1.45.38-.31,1.07-.33,1.48.08l17.71,17.71c1.49-1.09,3.15-1.41,4.95-.8,1.38.46,2.67,1.66,3.11,3.47h19.95c.57,0,1,.52,1.02.93.03.57-.31,1.14-1.13,1.14ZM39.89,40.81c.79,1.3,2.28,1.85,3.51,1.25,1.14-.55,1.9-1.83,1.63-3.08-.27-1.28-1.45-2.15-2.86-2.16-1.01,0-1.96.5-2.37,1.28-.43.82-.43,1.86.09,2.71Z"/>
    </g>
  </g>
</svg>