<?xml version="1.0" encoding="UTF-8"?>
<svg id="Capa_2" data-name="Capa 2" xmlns="http://www.w3.org/2000/svg" viewBox="0 0 59.2 89">
  <defs>
    <style>
      .cls-1 {
        fill: #b49883;
      }
    </style>
  </defs>
  <g id="Capa_1-2" data-name="Capa 1">
    <g>
      <path class="cls-1" d="M28.82,3.56C14.78,4.08,3.81,17.07,7.02,31.18c.81,3.55,2.05,6.79,3.53,10.12,2.23,5.03,4.59,9.81,7.34,14.59l10.87,18.88c-2.47-3.04-4.58-6.15-6.69-9.42-6.28-9.87-13.67-20.77-17.3-31.92-2.65-8.14-1.07-16.87,4.35-23.51C14.26,3.63,21.99-.13,30.2,0c8.45.13,16.27,4.36,21.18,11.14,4.76,6.57,5.98,14.87,3.38,22.56-3.49,10.31-11.13,22.65-17.32,31.65l-6.39,8.5,10.4-18.1c2.72-4.73,5.06-9.46,7.27-14.45,1.5-3.39,2.77-6.67,3.56-10.29,1.27-5.8.27-11.75-2.96-16.73-4.45-6.86-12.15-11.03-20.51-10.72Z"/>
      <path class="cls-1" d="M50.24,69.37c-3.99-1.89-8.02-2.91-12.32-3.96,5.79.26,14.46,1.78,18.97,5.85,2.52,2.28,3.05,5.68,1.22,8.56-2.37,3.72-7.81,5.9-12,6.98-11.28,2.9-22.06,3.02-33.31-.16-4.06-1.15-9.37-3.34-11.79-6.86-2.98-4.33,1.21-8.75,4.85-10.72,4.47-2.42,10.38-3.48,15.52-3.66-5.38,1.43-14.78,3.52-18.01,8.52-.97,1.51-.84,3.29.35,4.65,2.58,2.95,8.06,4.59,11.91,5.42,10.47,2.25,21.22,1.89,31.55-.91,2.91-.79,6.71-2.36,8.49-4.78,1.29-1.75,1.06-3.86-.38-5.45s-3.11-2.53-5.06-3.49Z"/>
      <path class="cls-1" d="M38.78,21.63c-1.71-3.61-4.91-5.7-8.82-6.54,7.26-.71,13.22,5.76,12.46,13.19-.51,4.92-3.95,9-8.3,10.6-4.97,1.83-10.31.52-13.87-3.22-4.1-4.31-4.64-10.93-1.2-15.75,2.39-3.35,6.26-5.24,10.27-4.84-2.28.6-4.23,1.36-5.94,2.86-3.05,2.68-4.42,6.66-3.43,10.67,1.44,5.85,7.66,8.94,13.21,6.95,5.55-1.99,8.23-8.43,5.62-13.92Z"/>
    </g>
  </g>
</svg>